<?xml version="1.0" encoding="utf-8"?>
<!-- Generator: Adobe Illustrator 26.5.0, SVG Export Plug-In . SVG Version: 6.00 Build 0)  -->
<svg version="1.1" id="Layer_1" xmlns="http://www.w3.org/2000/svg" xmlns:xlink="http://www.w3.org/1999/xlink" x="0px" y="0px"
	 viewBox="0 0 262.85 37.84" style="enable-background:new 0 0 262.85 37.84;" xml:space="preserve">
<style type="text/css">
	.st0{fill:none;}
</style>
<g>
	<path d="M5.13,37.84H0V0.42h5.93c0.28,0,0.46,0.14,0.53,0.43l7.59,25.6h0.53l7.59-25.6c0.07-0.28,0.25-0.43,0.53-0.43h5.93v37.42
		h-5.13V13.89h-0.53l-7,23.95h-3.31l-7-23.95H5.13V37.84z"/>
	<path d="M61.52,37.84l-2.46-8.12H45.81l-2.46,8.12h-4.54V34.2l9.73-33.36c0.07-0.28,0.25-0.43,0.53-0.43h6.68
		c0.28,0,0.46,0.14,0.53,0.43l9.78,33.36v3.63H61.52z M52.06,6.03l-4.92,18.66h10.53L52.71,6.03H52.06z"/>
	<path d="M82.53,37.84V5.23h-9.19V0.42h23.57v4.81h-9.25v32.61H82.53z"/>
	<path d="M129.57,20.89l1.82,1.82c0.21,0.29,0.32,0.54,0.32,0.75v14.38h-5.13V23.35c0-0.14-0.07-0.21-0.21-0.21h-13.1v14.7h-5.13
		V0.42h19.94c0.21,0,0.46,0.11,0.75,0.32l2.57,2.57c0.21,0.29,0.32,0.53,0.32,0.75v13.79c0,0.29-0.11,0.53-0.32,0.75l-1.82,1.82
		V20.89z M126.58,18.01V5.45c0-0.14-0.07-0.21-0.21-0.21h-13.1v12.99h13.1C126.5,18.22,126.58,18.15,126.58,18.01z"/>
	<path d="M148.06,0.42v37.42h-5.13V0.42H148.06z"/>
	<path d="M171.21,23.78l-8.07,14.06h-3.85V34.1l8.45-15.02L159.29,3.9V0.42h4.01l7.86,13.95h0.54l7.91-13.95h3.9v3.74l-8.34,14.86
		l8.45,15.07v3.74h-3.9l-7.96-14.06H171.21z"/>
</g>
<g>
	<rect x="208.58" y="5.54" class="st0" width="11.75" height="27.06"/>
	<path d="M225.73,3.07l-2.59-2.59c-0.04-0.03-0.07-0.04-0.09-0.06h-17.28l-2.67,2.72l0.01,31.99l2.7,2.7l17.32,0l2.67-2.72
		l-0.01-31.96C225.78,3.14,225.76,3.11,225.73,3.07z M222.75,33.58c0,0.82-0.62,1.44-1.44,1.44h-13.71c-0.82,0-1.44-0.62-1.44-1.44
		V4.56c0-0.82,0.62-1.44,1.44-1.44h13.71c0.82,0,1.44,0.62,1.44,1.44V33.58z"/>
	<path d="M259.8,4.56v5.22h3.04V3.16c-0.01-0.02-0.03-0.05-0.06-0.09l-2.59-2.59c-0.04-0.03-0.07-0.05-0.09-0.06h-17.28l-2.67,2.72
		l0.01,13.21l1.37,1.37c0.01,0.01,0.06,0.03,0.13,0.05l16.74,3.82c0.87,0.22,1.4,0.89,1.4,1.75v10.24c0,0.82-0.62,1.44-1.44,1.44
		h-13.71c-0.82,0-1.44-0.62-1.44-1.44v-6.7h-3.04v8.25l2.7,2.7l17.31,0l2.67-2.72l-0.01-14.54c-0.01-0.02-0.03-0.05-0.06-0.09
		l-1.18-1.18c-0.21-0.16-0.3-0.2-0.31-0.2l-16.69-3.8c-0.87-0.22-1.4-0.88-1.4-1.75V4.56c0-0.82,0.62-1.44,1.44-1.44h13.71
		C259.18,3.12,259.8,3.74,259.8,4.56z"/>
</g>
</svg>
